<?xml version="1.0" encoding="UTF-8" standalone="no"?>
<svg
   xmlns:dc="http://purl.org/dc/elements/1.1/"
   xmlns:cc="http://creativecommons.org/ns#"
   xmlns:rdf="http://www.w3.org/1999/02/22-rdf-syntax-ns#"
   xmlns:svg="http://www.w3.org/2000/svg"
   xmlns="http://www.w3.org/2000/svg"
   xmlns:sodipodi="http://sodipodi.sourceforge.net/DTD/sodipodi-0.dtd"
   xmlns:inkscape="http://www.inkscape.org/namespaces/inkscape"
   version="1.1"
   x="0px"
   y="0px"
   viewBox="0 0 1000 1000"
   enable-background="new 0 0 1000 1000"
   xml:space="preserve"
   id="svg10"
   sodipodi:docname="PicnicBankje.svg"
   inkscape:version="1.0.1 (3bc2e813f5, 2020-09-07)"><defs
   id="defs14"><inkscape:path-effect
     effect="bspline"
     id="path-effect841"
     is_visible="true"
     lpeversion="1"
     weight="33.333333"
     steps="2"
     helper_size="0"
     apply_no_weight="true"
     apply_with_weight="true"
     only_selected="false" /></defs><sodipodi:namedview
   pagecolor="#ffffff"
   bordercolor="#666666"
   borderopacity="1"
   objecttolerance="10"
   gridtolerance="10"
   guidetolerance="10"
   inkscape:pageopacity="0"
   inkscape:pageshadow="2"
   inkscape:window-width="1920"
   inkscape:window-height="1017"
   id="namedview12"
   showgrid="false"
   inkscape:zoom="0.442"
   inkscape:cx="500"
   inkscape:cy="500"
   inkscape:window-x="-8"
   inkscape:window-y="-8"
   inkscape:window-maximized="1"
   inkscape:current-layer="layer1"
   inkscape:document-rotation="0" />
<metadata
   id="metadata2"> Svg Vector Icons : http://www.onlinewebfonts.com/icon <rdf:RDF><cc:Work
     rdf:about=""><dc:format>image/svg+xml</dc:format><dc:type
       rdf:resource="http://purl.org/dc/dcmitype/StillImage" /><dc:title /></cc:Work></rdf:RDF></metadata>
<path
   d="M 464.51,11.94 C 417.13,18.08 372.82,34 335.61,58.36 265.6,103.82 219.38,171.72 201.54,255.35 c -3.84,17.07 -4.41,25.9 -4.41,58.5 0,32.61 0.58,41.43 4.41,58.5 6.33,29.35 14.77,53.71 27.62,78.64 6.33,12.08 69.44,138.3 140.6,280.43 C 440.73,873.76 499.42,990 500,990 500.58,990 559.27,873.76 630.24,731.63 701.4,589.3 764.51,463.08 770.84,451 c 12.86,-24.94 21.29,-49.3 27.62,-78.64 3.84,-17.26 4.41,-25.7 4.41,-58.5 0,-32.42 -0.77,-41.43 -4.41,-58.5 C 785.42,193.98 757.6,142 714.64,99.22 656.9,41.29 578.26,9.07 497.12,10.03 486,10.21 471.42,10.98 464.51,11.94 Z"
   id="path4"
   sodipodi:nodetypes="cccscccscccscccc"
   style="fill:#b500db;fill-opacity:1;stroke-width:0.1"
   inkscape:export-xdpi="96"
   inkscape:export-ydpi="96" />
<g
   inkscape:groupmode="layer"
   id="layer1"
   inkscape:label="Layer 1"><path
     style="fill:none;stroke:#000000;stroke-width:0.0553841px;stroke-linecap:butt;stroke-linejoin:miter;stroke-opacity:1"
     d="m -199.99902,-344.65883 348.88428,-0.007 v 0"
     id="path843" /><g
     id="g861"
     inkscape:export-xdpi="96"
     inkscape:export-ydpi="96"><path
       style="fill:#705fff;fill-opacity:1;stroke:#ffffff;stroke-width:50.4865;stroke-linecap:round;stroke-linejoin:miter;stroke-miterlimit:4;stroke-dasharray:none;stroke-opacity:1"
       d="m 268.73039,321.00269 h 462.5393"
       id="path845" /><path
       style="fill:#21ffff;fill-opacity:1;stroke:#ffffff;stroke-width:48;stroke-linecap:round;stroke-linejoin:miter;stroke-miterlimit:4;stroke-dasharray:none;stroke-opacity:1"
       d="M 359.06939,196.4054 H 640.93055"
       id="path845-4" /><path
       style="fill:#ff22ff;fill-opacity:1;stroke:#ffffff;stroke-width:48;stroke-linecap:round;stroke-linejoin:miter;stroke-miterlimit:4;stroke-dasharray:none;stroke-opacity:1"
       d="M 302.98133,454.92514 429.14547,215.47595"
       id="path845-4-1"
       sodipodi:nodetypes="cc" /><path
       style="fill:#ff22ff;fill-opacity:1;stroke:#ffffff;stroke-width:48;stroke-linecap:round;stroke-linejoin:miter;stroke-miterlimit:4;stroke-dasharray:none;stroke-opacity:1"
       d="M 697.01869,454.92517 570.85455,215.47598"
       id="path845-4-1-3"
       sodipodi:nodetypes="cc" /></g></g></svg>
